<svg width="56" height="57" viewBox="0 0 56 57" fill="none" xmlns="http://www.w3.org/2000/svg">
<circle cx="28" cy="28.1176" r="28" fill="#C9F2E9"/>
<mask id="mask0_1_2162" style="mask-type:alpha" maskUnits="userSpaceOnUse" x="0" y="0" width="56" height="57">
<circle cx="28" cy="28.1176" r="28" fill="#C4C4C4"/>
</mask>
<g mask="url(#mask0_1_2162)">
<path fill-rule="evenodd" clip-rule="evenodd" d="M28 14.6138C22.3767 14.6138 17.8182 19.1724 17.8182 24.7956V25.832C16.7863 26.0051 16 26.9025 16 27.9836V30.4771C16 31.5801 16.8184 32.4919 17.8811 32.6384C18.2785 36.2091 20.5225 39.2224 23.6364 40.7017V44.0488C15.9351 44.4634 9.81818 50.8393 9.81818 58.6439H46.1818C46.1818 50.8393 40.0649 44.4634 32.3636 44.0488V40.7017C35.4775 39.2224 37.7215 36.2091 38.1188 32.6384C39.1816 32.4919 40 31.5801 40 30.4771V27.9836C40 26.9025 39.2137 26.0051 38.1818 25.832V24.7956C38.1818 19.1724 33.6233 14.6138 28 14.6138Z" fill="#D0C6AC"/>
<mask id="mask1_1_2162" style="mask-type:luminance" maskUnits="userSpaceOnUse" x="9" y="14" width="38" height="45">
<path fill-rule="evenodd" clip-rule="evenodd" d="M28 14.6138C22.3767 14.6138 17.8182 19.1724 17.8182 24.7956V25.832C16.7863 26.0051 16 26.9025 16 27.9836V30.4771C16 31.5801 16.8184 32.4919 17.8811 32.6384C18.2785 36.2091 20.5225 39.2224 23.6364 40.7017V44.0488C15.9351 44.4634 9.81818 50.8393 9.81818 58.6439H46.1818C46.1818 50.8393 40.0649 44.4634 32.3636 44.0488V40.7017C35.4775 39.2224 37.7215 36.2091 38.1188 32.6384C39.1816 32.4919 40 31.5801 40 30.4771V27.9836C40 26.9025 39.2137 26.0051 38.1818 25.832V24.7956C38.1818 19.1724 33.6233 14.6138 28 14.6138Z" fill="white"/>
</mask>
<g mask="url(#mask1_1_2162)">
<rect width="48" height="44.0301" transform="translate(4 14.6138)" fill="#FFCCD7"/>
<rect x="4" y="14.6138" width="48" height="44.0301" fill="#FFCCD7"/>
<path fill-rule="evenodd" clip-rule="evenodd" d="M17.8182 31.4997V32.9433C17.8182 38.5666 22.3767 43.1251 28 43.1251C33.6233 43.1251 38.1818 38.5666 38.1818 32.9433V31.4997C38.1818 37.123 33.6233 41.6815 28 41.6815C22.3767 41.6815 17.8182 37.123 17.8182 31.4997Z" fill="black" fill-opacity="0.1"/>
</g>
<path fill-rule="evenodd" clip-rule="evenodd" d="M28.0909 50.6731C33.0615 50.6731 37.0909 48.2914 37.0909 45.3534C37.0909 45.272 37.0878 45.191 37.0817 45.1105C42.4194 47.2847 46.1818 52.525 46.1818 58.644H9.81818C9.81818 52.4532 13.6694 47.1619 19.1067 45.0353C19.0962 45.1405 19.0909 45.2466 19.0909 45.3534C19.0909 48.2914 23.1203 50.6731 28.0909 50.6731Z" fill="#6223A9"/>
<mask id="mask2_1_2162" style="mask-type:luminance" maskUnits="userSpaceOnUse" x="9" y="45" width="38" height="14">
<path fill-rule="evenodd" clip-rule="evenodd" d="M28.0909 50.6731C33.0615 50.6731 37.0909 48.2914 37.0909 45.3534C37.0909 45.272 37.0878 45.191 37.0817 45.1105C42.4194 47.2847 46.1818 52.525 46.1818 58.644H9.81818C9.81818 52.4532 13.6694 47.1619 19.1067 45.0353C19.0962 45.1405 19.0909 45.2466 19.0909 45.3534C19.0909 48.2914 23.1203 50.6731 28.0909 50.6731Z" fill="white"/>
</mask>
<g mask="url(#mask2_1_2162)">
<rect x="4" y="38.7945" width="48" height="19.8496" fill="#6223A9"/>
</g>
<path fill-rule="evenodd" clip-rule="evenodd" d="M25.4545 35.0048C25.4545 36.4 26.5942 37.5311 28 37.5311C29.4058 37.5311 30.5454 36.4 30.5454 35.0048" fill="#0C092A"/>
<g opacity="0.3">
<path fill-rule="evenodd" clip-rule="evenodd" d="M25.8182 31.5765C25.8182 32.3738 26.795 33.0201 28 33.0201C29.205 33.0201 30.1818 32.3738 30.1818 31.5765" fill="#0C092A"/>
</g>
<ellipse cx="23.2727" cy="28.328" rx="1.09091" ry="1.08271" fill="#0C092A"/>
<ellipse cx="32.7273" cy="28.328" rx="1.09091" ry="1.08271" fill="#0C092A"/>
<path d="M20.66 26.0108C21.3718 25.0167 23.3232 24.4593 25.0042 24.869C25.1992 24.9165 25.3961 24.7982 25.444 24.6046C25.4919 24.411 25.3726 24.2156 25.1776 24.168C23.2255 23.6923 20.9658 24.3377 20.0672 25.5927C19.9509 25.7551 19.9893 25.9804 20.153 26.0959C20.3167 26.2114 20.5437 26.1733 20.66 26.0108Z" fill="#0C092A"/>
<path d="M35.34 26.0108C34.6282 25.0167 32.6768 24.4593 30.9958 24.869C30.8008 24.9165 30.6039 24.7982 30.556 24.6046C30.5081 24.411 30.6274 24.2156 30.8224 24.168C32.7745 23.6923 35.0342 24.3377 35.9328 25.5927C36.0491 25.7551 36.0107 25.9804 35.847 26.0959C35.6833 26.2114 35.4563 26.1733 35.34 26.0108Z" fill="#0C092A"/>
<mask id="mask3_1_2162" style="mask-type:luminance" maskUnits="userSpaceOnUse" x="4" y="8" width="48" height="51">
<rect x="4" y="8.1177" width="48" height="50.5263" fill="white"/>
</mask>
<g mask="url(#mask3_1_2162)">
<path fill-rule="evenodd" clip-rule="evenodd" d="M11.0909 34.2831C10.9787 28.7187 16.2398 17.1033 18.1818 14.7944C19.6224 13.0817 23.581 11.6456 28.0001 11.7267C32.4191 11.8078 36.5204 12.7755 38.0001 14.614C40.2408 17.3979 44.8853 27.9815 44.9091 34.2831C44.9261 38.7583 43.175 43.2443 40.7273 43.4861C39.3453 43.6227 37.5898 43.4454 35.4803 43.2325L35.4801 43.2325L35.48 43.2324L35.4798 43.2324L35.4797 43.2324C34.5144 43.135 33.4751 43.0301 32.3636 42.9443V40.7018C35.8036 39.0676 38.1818 35.5614 38.1818 31.4998V26.4449C36.2712 25.4002 34.6446 24.139 33.2895 22.8575C33.8996 23.9836 34.5975 25.0062 35.3843 25.779C29.8238 24.2306 25.9799 21.0597 23.6763 18.5736C22.6173 20.5729 20.7206 23.4967 17.8182 25.7239V31.4998C17.8182 35.5614 20.1964 39.0676 23.6364 40.7018V43.0793C22.3722 43.2511 21.1972 43.4691 20.116 43.6696C18.1435 44.0355 16.4828 44.3436 15.1609 44.208C12.5749 43.9428 11.1812 38.7575 11.0909 34.2831Z" fill="#E6E6E6"/>
<mask id="mask4_1_2162" style="mask-type:luminance" maskUnits="userSpaceOnUse" x="11" y="11" width="34" height="34">
<path fill-rule="evenodd" clip-rule="evenodd" d="M11.0909 34.2831C10.9787 28.7187 16.2398 17.1033 18.1818 14.7944C19.6224 13.0817 23.581 11.6456 28.0001 11.7267C32.4191 11.8078 36.5204 12.7755 38.0001 14.614C40.2408 17.3979 44.8853 27.9815 44.9091 34.2831C44.9261 38.7583 43.175 43.2443 40.7273 43.4861C39.3453 43.6227 37.5898 43.4454 35.4803 43.2325L35.4801 43.2325L35.48 43.2324L35.4798 43.2324L35.4797 43.2324C34.5144 43.135 33.4751 43.0301 32.3636 42.9443V40.7018C35.8036 39.0676 38.1818 35.5614 38.1818 31.4998V26.4449C36.2712 25.4002 34.6446 24.139 33.2895 22.8575C33.8996 23.9836 34.5975 25.0062 35.3843 25.779C29.8238 24.2306 25.9799 21.0597 23.6763 18.5736C22.6173 20.5729 20.7206 23.4967 17.8182 25.7239V31.4998C17.8182 35.5614 20.1964 39.0676 23.6364 40.7018V43.0793C22.3722 43.2511 21.1972 43.4691 20.116 43.6696C18.1435 44.0355 16.4828 44.3436 15.1609 44.208C12.5749 43.9428 11.1812 38.7575 11.0909 34.2831Z" fill="white"/>
</mask>
<g mask="url(#mask4_1_2162)">
<rect x="3.81818" y="8.1177" width="48.3636" height="50.5263" fill="#0C092A"/>
</g>
</g>
</g>
</svg>
