<svg width="56" height="57" viewBox="0 0 56 57" fill="none" xmlns="http://www.w3.org/2000/svg">
<circle cx="28" cy="28.1176" r="28" fill="#FFD6DD"/>
<mask id="mask0_1_2072" style="mask-type:alpha" maskUnits="userSpaceOnUse" x="0" y="0" width="56" height="57">
<circle cx="28" cy="28.1176" r="28" fill="#C4C4C4"/>
</mask>
<g mask="url(#mask0_1_2072)">
<path fill-rule="evenodd" clip-rule="evenodd" d="M28 14.6139C22.3767 14.6139 17.8182 19.1724 17.8182 24.7957V25.832C16.7863 26.0051 16 26.9026 16 27.9837V30.4772C16 31.5802 16.8184 32.492 17.8811 32.6384C18.2785 36.2092 20.5224 39.2225 23.6364 40.7017V44.0489C15.9351 44.4634 9.81818 50.8393 9.81818 58.644H46.1818C46.1818 50.8393 40.0649 44.4634 32.3636 44.0489V40.7017C35.4775 39.2225 37.7215 36.2092 38.1188 32.6385C39.1816 32.492 40 31.5802 40 30.4772V27.9837C40 26.9026 39.2137 26.0051 38.1818 25.832V24.7957C38.1818 19.1724 33.6233 14.6139 28 14.6139Z" fill="#D0C6AC"/>
<mask id="mask1_1_2072" style="mask-type:luminance" maskUnits="userSpaceOnUse" x="9" y="14" width="38" height="45">
<path fill-rule="evenodd" clip-rule="evenodd" d="M28 14.6139C22.3767 14.6139 17.8182 19.1724 17.8182 24.7957V25.832C16.7863 26.0051 16 26.9026 16 27.9837V30.4772C16 31.5802 16.8184 32.492 17.8811 32.6384C18.2785 36.2092 20.5224 39.2225 23.6364 40.7017V44.0489C15.9351 44.4634 9.81818 50.8393 9.81818 58.644H46.1818C46.1818 50.8393 40.0649 44.4634 32.3636 44.0489V40.7017C35.4775 39.2225 37.7215 36.2092 38.1188 32.6385C39.1816 32.492 40 31.5802 40 30.4772V27.9837C40 26.9026 39.2137 26.0051 38.1818 25.832V24.7957C38.1818 19.1724 33.6233 14.6139 28 14.6139Z" fill="white"/>
</mask>
<g mask="url(#mask1_1_2072)">
<rect x="4" y="14.6139" width="48" height="44.0301" fill="#D08B5B"/>
<path fill-rule="evenodd" clip-rule="evenodd" d="M17.8182 31.4997V32.9433C17.8182 38.5666 22.3767 43.1252 28 43.1252C33.6233 43.1252 38.1818 38.5666 38.1818 32.9433V31.4997C38.1818 37.123 33.6233 41.6816 28 41.6816C22.3767 41.6816 17.8182 37.123 17.8182 31.4997Z" fill="black" fill-opacity="0.1"/>
</g>
<path fill-rule="evenodd" clip-rule="evenodd" d="M28.0909 48.1467C31.4548 48.1467 34.1818 46.4113 34.1818 44.2706C34.1818 44.27 34.1818 44.2694 34.1818 44.2688C41.0052 45.4982 46.1818 51.4666 46.1818 58.644H9.81818C9.81818 51.4029 15.0871 45.3924 22.0002 44.2372C22.0001 44.2484 22 44.2595 22 44.2706C22 46.4113 24.727 48.1467 28.0909 48.1467Z" fill="#E6E6E6"/>
<mask id="mask2_1_2072" style="mask-type:luminance" maskUnits="userSpaceOnUse" x="9" y="44" width="38" height="15">
<path fill-rule="evenodd" clip-rule="evenodd" d="M28.0909 48.1467C31.4548 48.1467 34.1818 46.4113 34.1818 44.2706C34.1818 44.27 34.1818 44.2694 34.1818 44.2688C41.0052 45.4982 46.1818 51.4666 46.1818 58.644H9.81818C9.81818 51.4029 15.0871 45.3924 22.0002 44.2372C22.0001 44.2484 22 44.2595 22 44.2706C22 46.4113 24.727 48.1467 28.0909 48.1467Z" fill="white"/>
</mask>
<g mask="url(#mask2_1_2072)">
<rect x="4" y="38.7943" width="48" height="19.8496" fill="#555FA8"/>
<g opacity="0.6">
<ellipse cx="28.0909" cy="44.5413" rx="7.20638" ry="4.85663" fill="black" fill-opacity="0.16"/>
</g>
</g>
<path d="M25.4545 35.1853C25.4545 36.1547 26.5742 36.8094 28 36.8094C29.4258 36.8094 30.5454 36.1547 30.5454 35.1853C30.5454 34.986 30.3728 34.8244 30.1818 34.8244C29.9468 34.8244 29.8418 34.9878 29.8182 35.1853C29.5923 35.7155 29.0333 36.0364 28 36.0876C26.9667 36.0364 26.4077 35.7155 26.1818 35.1853C26.1581 34.9878 26.0532 34.8244 25.8182 34.8244C25.6272 34.8244 25.4545 34.986 25.4545 35.1853Z" fill="black" fill-opacity="0.6"/>
<path fill-rule="evenodd" clip-rule="evenodd" d="M25.8182 31.5763C25.8182 32.3736 26.795 33.0199 28 33.0199C29.205 33.0199 30.1818 32.3736 30.1818 31.5763" fill="black" fill-opacity="0.16"/>
<ellipse cx="23.2727" cy="28.3282" rx="1.09091" ry="1.08271" fill="black" fill-opacity="0.6"/>
<ellipse cx="32.7273" cy="28.3282" rx="1.09091" ry="1.08271" fill="black" fill-opacity="0.6"/>
<path d="M20.66 26.0109C21.3718 25.0169 23.3232 24.4595 25.0042 24.8691C25.1992 24.9167 25.3961 24.7983 25.444 24.6047C25.4919 24.4112 25.3726 24.2157 25.1776 24.1682C23.2255 23.6924 20.9658 24.3379 20.0672 25.5928C19.9509 25.7553 19.9893 25.9806 20.153 26.096C20.3167 26.2115 20.5437 26.1734 20.66 26.0109Z" fill="black" fill-opacity="0.6"/>
<path d="M35.34 26.0109C34.6282 25.0169 32.6768 24.4595 30.9958 24.8691C30.8008 24.9167 30.6039 24.7983 30.556 24.6047C30.5081 24.4112 30.6274 24.2157 30.8224 24.1682C32.7745 23.6924 35.0342 24.3379 35.9328 25.5928C36.0491 25.7553 36.0107 25.9806 35.847 26.096C35.6833 26.2115 35.4563 26.1734 35.34 26.0109Z" fill="black" fill-opacity="0.6"/>
<mask id="mask3_1_2072" style="mask-type:luminance" maskUnits="userSpaceOnUse" x="4" y="8" width="48" height="51">
<rect x="4" y="8.11765" width="48" height="50.5263" fill="white"/>
</mask>
<g mask="url(#mask3_1_2072)">
<path fill-rule="evenodd" clip-rule="evenodd" d="M17.9999 25.8019C17.9404 26.0225 17.6993 26.0705 17.6362 25.8019C17.5055 23.9436 17.6362 14.5644 27.9999 14.4334C38.3635 14.3025 38.4943 23.9436 38.3635 25.8019C38.3004 26.0705 38.0594 26.0225 37.9999 25.8019C38.084 25.5214 37.4006 20.6135 35.6362 19.3056C35.3164 19.0848 34.3186 18.8744 32.9743 18.7172L33.6364 17.1402L32.3669 18.6521C31.0883 18.5269 29.574 18.4487 28.0567 18.4477C24.5468 18.4452 21.0214 18.8515 20.3635 19.3056C18.5991 20.6135 17.9158 25.5214 17.9999 25.8019Z" fill="#28354B"/>
<mask id="mask4_1_2072" style="mask-type:luminance" maskUnits="userSpaceOnUse" x="17" y="14" width="22" height="12">
<path fill-rule="evenodd" clip-rule="evenodd" d="M17.9999 25.8019C17.9404 26.0225 17.6993 26.0705 17.6362 25.8019C17.5055 23.9436 17.6362 14.5644 27.9999 14.4334C38.3635 14.3025 38.4943 23.9436 38.3635 25.8019C38.3004 26.0705 38.0594 26.0225 37.9999 25.8019C38.084 25.5214 37.4006 20.6135 35.6362 19.3056C35.3164 19.0848 34.3186 18.8744 32.9743 18.7172L33.6364 17.1402L32.3669 18.6521C31.0883 18.5269 29.574 18.4487 28.0567 18.4477C24.5468 18.4452 21.0214 18.8515 20.3635 19.3056C18.5991 20.6135 17.9158 25.5214 17.9999 25.8019Z" fill="white"/>
</mask>
<g mask="url(#mask4_1_2072)">
<rect x="4" y="8.11765" width="48" height="50.5263" fill="#2C1B18"/>
</g>
<g filter="url(#filter0_d_1_2072)">
<path fill-rule="evenodd" clip-rule="evenodd" d="M24.9542 26.2124C25.3854 26.2164 25.5892 26.2876 25.6627 26.7339C25.7371 27.186 25.6647 27.6943 25.5789 28.1396C25.4479 28.8195 25.2301 29.4857 24.723 29.9826C24.4559 30.2444 24.1301 30.453 23.7835 30.5954C23.5995 30.6711 23.4052 30.7257 23.2109 30.7671C23.1541 30.7792 22.6693 30.8455 22.9666 30.8118C22.2727 30.8904 21.5198 30.8873 20.9402 30.4489C20.2979 29.9631 19.858 29.1943 19.6646 28.4285C19.5514 27.9805 19.3136 26.9088 19.7481 26.5506C20.2458 26.1401 24.9542 26.2124 24.9542 26.2124ZM20.585 24.9881C19.5958 25.0219 18.9357 25.1944 18.4478 26.1752C17.5537 27.9727 19.0841 30.6684 20.7912 31.403C22.7871 32.2619 25.0167 31.3114 26.0718 29.5924C26.6306 28.6823 26.9131 27.3038 26.8949 26.2537C26.8717 24.9134 25.9285 24.8762 24.8197 24.9057L20.585 24.9881Z" fill="#44509F"/>
<path fill-rule="evenodd" clip-rule="evenodd" d="M31.0329 26.2119C30.6017 26.216 30.3978 26.2871 30.3244 26.7334C30.2499 27.1855 30.3223 27.6938 30.4081 28.1391C30.5391 28.819 30.757 29.4852 31.264 29.9822C31.5312 30.2439 31.857 30.4525 32.2035 30.595C32.3875 30.6706 32.5819 30.7252 32.7761 30.7666C32.8329 30.7787 33.3177 30.8451 33.0204 30.8113C33.7144 30.89 34.4672 30.8868 35.0468 30.4485C35.6892 29.9626 36.129 29.1939 36.3224 28.4281C36.4356 27.98 36.6733 26.9084 36.2389 26.5501C35.7412 26.1396 31.0329 26.2119 31.0329 26.2119ZM35.402 24.9876C36.3912 25.0215 37.0514 25.194 37.5392 26.1748C38.4333 27.9722 36.903 30.6679 35.1958 31.4026C33.2 32.2614 30.9704 31.3109 29.9151 29.592C29.3564 28.6818 29.0739 27.3033 29.0921 26.2532C29.1153 24.9129 30.0586 24.8758 31.1673 24.9053L35.402 24.9876Z" fill="#44509F"/>
<path fill-rule="evenodd" clip-rule="evenodd" d="M18.9449 25.7886C18.3245 25.8232 17.6156 25.8315 17.0345 26.0977C16.4191 26.3796 16.324 27.0179 17.0998 27.1058C17.4492 27.1454 17.799 27.0799 18.1431 27.019C18.4249 26.9691 18.8076 26.9853 19.0739 26.8784C19.5701 26.6793 19.5382 25.7549 18.9449 25.7886Z" fill="#44509F"/>
<path fill-rule="evenodd" clip-rule="evenodd" d="M37.0428 25.7886C37.6632 25.8232 38.3721 25.8315 38.9532 26.0977C39.5686 26.3796 39.6637 27.0179 38.8879 27.1058C38.5385 27.1454 38.1887 27.0799 37.8446 27.019C37.5628 26.9691 37.1801 26.9853 36.9138 26.8784C36.4176 26.6793 36.4495 25.7549 37.0428 25.7886Z" fill="#44509F"/>
<path fill-rule="evenodd" clip-rule="evenodd" d="M29.8379 26.165C29.484 25.75 28.5619 25.5104 27.9801 25.5104C27.3983 25.5104 26.5031 25.75 26.1493 26.165C25.9709 26.3743 25.9648 26.6543 26.2741 26.7855C26.6591 26.9489 27.003 26.6526 27.3112 26.4976C27.7055 26.2993 28.3111 26.3211 28.676 26.4976C28.9866 26.6478 29.328 26.9489 29.7132 26.7855C30.0224 26.6543 30.0163 26.3743 29.8379 26.165Z" fill="#44509F"/>
</g>
</g>
</g>
<defs>
<filter id="filter0_d_1_2072" x="16.5454" y="24.8996" width="22.8969" height="8.8247" filterUnits="userSpaceOnUse" color-interpolation-filters="sRGB">
<feFlood flood-opacity="0" result="BackgroundImageFix"/>
<feColorMatrix in="SourceAlpha" type="matrix" values="0 0 0 0 0 0 0 0 0 0 0 0 0 0 0 0 0 0 127 0" result="hardAlpha"/>
<feOffset dy="2"/>
<feColorMatrix type="matrix" values="0 0 0 0 0 0 0 0 0 0 0 0 0 0 0 0 0 0 0.1 0"/>
<feBlend mode="normal" in2="BackgroundImageFix" result="effect1_dropShadow_1_2072"/>
<feBlend mode="normal" in="SourceGraphic" in2="effect1_dropShadow_1_2072" result="shape"/>
</filter>
</defs>
</svg>
